<?xml version="1.0" standalone="no"?>
<!DOCTYPE svg PUBLIC "-//W3C//DTD SVG 20010904//EN"
 "http://www.w3.org/TR/2001/REC-SVG-20010904/DTD/svg10.dtd">
<svg version="1.0" xmlns="http://www.w3.org/2000/svg"
 width="642.000000pt" height="764.000000pt" viewBox="0 0 642.000000 764.000000"
 preserveAspectRatio="xMidYMid meet">

<g transform="translate(0.000000,764.000000) scale(0.100000,-0.100000)"
fill="#000000" stroke="none">
<path d="M2680 7633 c-236 -39 -437 -232 -500 -479 -19 -72 -20 -112 -20 -629
0 -544 0 -553 -20 -558 -19 -5 -20 -14 -20 -131 0 -115 2 -126 20 -136 19 -10
20 -21 20 -199 0 -180 -1 -189 -20 -194 -19 -5 -20 -14 -20 -237 0 -223 1
-232 20 -237 17 -5 20 -14 20 -68 0 -54 -3 -63 -20 -68 -19 -5 -20 -14 -20
-237 0 -223 1 -232 20 -237 20 -5 20 -20 22 -1862 l3 -1856 21 -55 c75 -195
175 -310 337 -390 44 -22 106 -43 145 -49 48 -8 487 -11 1542 -9 1475 3 1475
3 1530 24 208 80 339 212 412 414 l23 65 3 1933 c2 1698 4 1933 17 1938 23 9
23 922 0 930 -13 5 -15 114 -15 893 0 994 4 937 -75 1097 -81 165 -241 293
-413 329 -56 12 -296 14 -1527 13 -803 0 -1471 -3 -1485 -5z m470 -68 c30 -16
60 -61 60 -90 0 -29 30 -74 60 -90 25 -13 141 -15 903 -15 l874 0 34 23 c25
17 37 34 45 68 29 114 41 119 286 119 221 0 299 -12 398 -62 88 -45 195 -152
242 -243 74 -143 68 172 68 -3455 0 -2945 -2 -3268 -16 -3324 -54 -210 -228
-379 -434 -422 -66 -13 -94 -13 -378 11 -459 38 -1035 94 -1139 110 -237 38
-1051 210 -1443 306 -274 67 -361 91 -437 121 l-53 20 0 3217 c0 2831 2 3224
15 3280 49 205 226 382 428 426 93 20 448 20 487 0z"/>
<path d="M2630 5860 c0 -7 520 -10 1540 -10 1020 0 1540 3 1540 10 0 7 -520
10 -1540 10 -1020 0 -1540 -3 -1540 -10z"/>
<path d="M2630 4840 c0 -7 520 -10 1540 -10 1020 0 1540 3 1540 10 0 7 -520
10 -1540 10 -1020 0 -1540 -3 -1540 -10z"/>
<path d="M2630 3820 c0 -7 520 -10 1540 -10 1020 0 1540 3 1540 10 0 7 -520
10 -1540 10 -1020 0 -1540 -3 -1540 -10z"/>
<path d="M3398 2953 c424 -2 1120 -2 1545 0 424 1 77 2 -773 2 -850 0 -1197
-1 -772 -2z"/>
<path d="M3398 2083 c424 -2 1120 -2 1545 0 424 1 77 2 -773 2 -850 0 -1197
-1 -772 -2z"/>
<path d="M935 5805 c-27 -13 -62 -27 -78 -30 -33 -7 -108 -96 -145 -175 -23
-47 -27 -69 -27 -145 0 -81 3 -97 32 -158 18 -37 40 -70 50 -74 10 -4 42 -26
72 -51 88 -70 126 -86 206 -87 59 0 78 5 124 30 113 62 171 198 138 323 -13
48 -13 52 2 47 13 -4 22 10 40 64 14 37 21 76 18 85 -4 9 -37 30 -74 47 -43
19 -79 44 -102 71 -67 78 -162 98 -256 53z"/>
<path d="M549 3165 c-3 -8 -106 -96 -116 -100 -1 0 16 -36 38 -80 32 -64 39
-86 34 -115 -4 -22 26 -251 79 -605 l85 -570 20 -665 c12 -366 21 -673 21
-682 0 -10 7 -18 15 -18 20 0 20 -134 0 -170 -17 -31 -19 -122 -3 -138 17 -17
429 -17 446 0 13 13 16 57 4 74 -4 7 -35 15 -69 19 -55 6 -70 13 -140 67 -43
33 -80 64 -82 69 -1 6 0 26 3 45 5 25 12 34 27 34 11 0 22 6 24 13 3 6 30 293
61 637 l56 625 -5 420 c-2 231 -3 413 -1 405 4 -17 264 -2083 264 -2099 0 -6
7 -11 15 -11 21 0 21 -126 0 -166 -18 -35 -20 -115 -3 -132 9 -9 73 -12 224
-12 204 0 213 1 227 21 10 13 12 30 8 47 -7 24 -14 28 -72 36 -56 7 -73 15
-136 63 -92 70 -94 74 -87 112 6 26 11 31 35 31 l29 0 0 202 c0 111 5 717 11
1346 6 629 9 1145 7 1147 -2 2 -48 -7 -103 -21 -304 -73 -626 -75 -763 -5 -51
27 -107 87 -130 141 -10 24 -21 40 -23 35z"/>
</g>
</svg>
