<?xml version="1.0" standalone="no"?>
<!DOCTYPE svg PUBLIC "-//W3C//DTD SVG 20010904//EN"
 "http://www.w3.org/TR/2001/REC-SVG-20010904/DTD/svg10.dtd">
<svg version="1.0" xmlns="http://www.w3.org/2000/svg"
 width="122.000000pt" height="152.000000pt" viewBox="0 0 122.000000 152.000000"
 preserveAspectRatio="xMidYMid meet">

<g transform="translate(0.000000,152.000000) scale(0.100000,-0.100000)"
fill="#000000" stroke="none">
<path d="M465 1361 c-76 -19 -154 -85 -189 -161 -18 -40 -21 -68 -24 -242 l-4
-198 -48 0 c-64 0 -94 -24 -94 -75 0 -51 30 -75 95 -75 l49 0 0 -49 0 -49 -55
-7 c-42 -5 -59 -12 -75 -32 -23 -29 -24 -42 -9 -76 14 -31 48 -47 99 -47 l40
0 0 -52 c0 -82 15 -124 50 -138 23 -10 36 -10 59 -1 38 16 51 49 51 126 l0 65
168 0 c181 0 210 7 226 51 15 43 0 78 -41 96 -29 11 -70 14 -195 11 l-158 -3
0 52 0 51 213 4 c208 3 213 4 273 31 73 34 142 101 181 177 26 50 28 64 28
165 0 98 -3 116 -26 166 -50 106 -132 174 -245 204 -61 16 -311 20 -369 6z
m380 -172 c35 -18 59 -39 80 -74 27 -44 30 -57 30 -131 0 -76 -2 -86 -30 -126
-17 -23 -51 -54 -75 -68 -43 -24 -53 -25 -242 -28 l-198 -4 0 190 c0 179 1
191 22 217 38 48 69 55 223 53 128 -3 145 -5 190 -29z"/>
</g>
</svg>
